<svg width="14" height="14" viewBox="0 0 14 14" fill="none" xmlns="http://www.w3.org/2000/svg">
<path d="M3.44201 8.576L2.86801 12.176C2.80601 12.554 2.96801 12.934 3.28201 13.152C3.45201 13.272 3.65401 13.332 3.85401 13.332C4.02001 13.332 4.18801 13.29 4.34001 13.206L7.35201 11.528L10.376 13.184C10.71 13.368 11.122 13.346 11.436 13.122C11.748 12.9 11.906 12.52 11.844 12.142L11.244 8.546L13.716 5.998C13.978 5.73 14.066 5.336 13.946 4.982C13.826 4.626 13.518 4.368 13.146 4.314L9.75601 3.808L8.22001 0.57C8.05801 0.222 7.70601 0 7.32001 0C7.31801 0 7.31802 0 7.31602 0C6.93002 0.002 6.57601 0.225999 6.41401 0.577999L4.90001 3.826L1.51201 4.354C1.14201 4.412 0.834012 4.672 0.718012 5.028C0.600012 5.384 0.692012 5.776 0.954012 6.042L3.44201 8.576Z" fill="#FF808E"/>
</svg>
