<svg width="45" height="48" viewBox="0 0 45 48" fill="none" xmlns="http://www.w3.org/2000/svg">
<path d="M43.5292 15.1244L38.4701 13.7689C39.3115 7.99084 35.704 2.35139 29.9285 0.80384C24.1529 -0.74371 18.209 2.33646 16.0487 7.76104L10.9896 6.40547C10.0727 6.15978 9.13025 6.70389 8.88456 7.62081L1.05528 36.8401C0.809594 37.757 1.3537 38.6994 2.27062 38.9451L34.8102 47.6641C35.7272 47.9097 36.6696 47.3656 36.9153 46.4487L44.7445 17.2295C44.9902 16.3125 44.4461 15.3701 43.5292 15.1244ZM29.0388 4.12421C32.9804 5.18036 35.4914 8.93639 35.117 12.8704L19.4018 8.65952C21.0446 5.0654 25.0972 3.06806 29.0388 4.12421ZM34.0397 43.8988L4.8205 36.0696L11.7601 10.1707L15.0805 11.0604L13.7459 16.0409C13.5002 16.9578 14.0443 17.9003 14.9613 18.146C15.8782 18.3916 16.8206 17.8475 17.0663 16.9306L18.4008 11.9501L34.3386 16.2206L33.0041 21.2011C32.7584 22.1181 33.3025 23.0605 34.2194 23.3062C35.1363 23.5518 36.0787 23.0077 36.3244 22.0908L37.659 17.1103L40.9793 18L34.0397 43.8988Z" fill="#5161B1"/>
</svg>
