<svg width="45" height="39" viewBox="0 0 45 39" fill="none" xmlns="http://www.w3.org/2000/svg">
<path d="M36.1302 0.388822L29.6453 2.10122L34.165 6.01559C34.4532 6.27218 34.34 6.73259 33.9695 6.83044L30.2638 7.80896C29.6524 7.97041 28.9751 7.81657 28.5026 7.39337L24.0868 3.56899L20.3811 4.5475L24.9008 8.46187C25.189 8.71846 25.0759 9.17888 24.7053 9.27673L20.9997 10.2552C20.3882 10.4167 19.7109 10.2628 19.2384 9.83965L14.8226 6.01527L11.117 6.99378L15.6367 10.9082C15.9249 11.1647 15.8118 11.6252 15.4412 11.723L11.7355 12.7015C11.1241 12.863 10.4653 12.7042 9.97428 12.2859L5.55849 8.46155L3.70566 8.95081C1.66755 9.48899 0.465346 11.5678 1.01146 13.5763L6.95049 35.4923C7.49661 37.5009 9.61097 38.7039 11.6491 38.1657L41.2943 30.3376C43.3325 29.7994 44.5532 27.7157 44.0071 25.7072L37.3048 1.05716C37.1658 0.545898 36.649 0.25183 36.1302 0.388822ZM22.7239 25.9454L21.7731 31.5783L18.0918 27.1685L12.376 26.2316L16.8507 22.6037L17.8014 16.9708L21.4827 21.3806L27.1986 22.3175L22.7239 25.9454ZM31.6232 17.1177L30.9042 21.339L28.1399 18.0375L23.8564 17.329L27.2065 14.6048L27.9255 10.3834L30.6898 13.685L34.9733 14.3935L31.6232 17.1177Z" fill="#E8505B"/>
</svg>
