<svg width="40" height="44" viewBox="0 0 40 44" fill="none" xmlns="http://www.w3.org/2000/svg">
<path d="M33.4491 22.2434C36.0422 18.1116 37.9844 13.9026 39.219 9.7303C39.5731 8.53412 39.4148 7.02506 38.8266 5.97461C38.1245 4.72179 36.8621 4.16609 35.3833 4.48714C33.0133 5.00344 30.6776 7.76441 28.8007 9.98412C28.6924 10.112 28.5865 10.2368 28.4817 10.3604C28.5431 9.07455 28.0185 7.81999 27.022 6.97169C27.0996 5.60577 26.345 4.31724 25.1258 3.70887C25.1313 3.63264 25.1329 3.55687 25.1305 3.47927C25.1082 2.50048 24.4895 1.60252 23.5933 1.24432C23.0755 1.03534 22.5377 1.01229 22.0298 1.15115C21.7094 0.841155 21.3169 0.616426 20.8833 0.500244C19.671 0.175421 18.426 0.748107 17.8572 1.80833C16.4353 1.81435 15.1376 2.77041 14.7483 4.18133C13.1317 4.16656 11.6642 5.23775 11.2288 6.86269C11.1134 7.2935 11.0799 7.74179 11.1276 8.18567C10.6053 8.565 10.2253 9.1132 10.0548 9.74965C9.95241 10.1317 9.93255 10.5208 9.98988 10.9008C9.49708 9.95437 8.68338 9.07063 7.57183 8.81612C7.18367 8.72556 6.79502 8.96586 6.70376 9.35383C6.61456 9.73414 6.84413 10.1154 7.21917 10.2159C7.24268 10.223 7.26485 10.2267 7.28716 10.2326C7.94034 10.4077 8.43171 11.0026 8.73918 11.6229C7.54822 11.6452 6.07639 11.8067 5.14041 12.8126C4.57792 13.4173 4.3022 14.2706 4.28304 15.3264C4.1046 15.4961 3.98025 15.7175 3.92532 15.9755L0.593771 33.1549C0.135295 35.2981 1.43443 37.4207 3.55082 37.9878L23.1191 43.2311C25.2355 43.7982 27.4219 42.6096 28.0924 40.5366L33.9878 23.4031C34.0679 23.1571 34.0431 22.8845 33.9195 22.6571C33.8189 22.4665 33.6458 22.326 33.4491 22.2434ZM28.5168 12.5074C28.9309 12.0662 29.4032 11.5084 29.9031 10.9168C31.5471 8.97243 33.7995 6.31019 35.6905 5.89787C36.5472 5.71201 37.1682 5.96807 37.5676 6.68028C38.0187 7.48404 38.0431 8.61727 37.8352 9.32067C36.6242 13.4133 34.7092 17.549 32.1423 21.6131C32.058 21.7466 31.8788 22.0139 31.6277 22.3792L30.2985 22.5886C30.2695 22.5936 30.241 22.5994 30.2125 22.6082C29.8225 22.7196 29.4075 22.7153 29.0181 22.6154C28.631 22.5072 28.2701 22.3037 27.9881 22.0122L27.571 21.5806C27.1011 21.0953 26.5081 20.7459 25.8556 20.5711C25.6792 20.5238 25.5001 20.4923 25.3203 20.4717C24.8206 20.4043 24.3072 20.4356 23.8183 20.5758L23.242 20.7412C22.9273 20.831 22.5986 20.8281 22.2779 20.7787C22.3072 20.7306 22.3385 20.6837 22.3678 20.6355C22.7372 20.0292 23.1196 19.436 23.5095 18.8509C23.6521 18.6365 23.7976 18.4252 23.9438 18.2141C24.2629 17.7512 24.5888 17.2961 24.9197 16.8476C25.0614 16.6561 25.2003 16.461 25.3442 16.2724C26.3505 14.9484 27.4076 13.6888 28.5168 12.5074ZM18.2526 18.5966C18.1724 18.5893 18.0927 18.5829 18.0126 18.5809C17.7689 18.5701 17.5245 18.5786 17.2821 18.616L17.3123 17.9681C17.5086 18.0386 17.7042 18.109 17.8917 18.1592C19.1074 18.485 20.1831 18.3854 21.5226 17.8866C21.9444 17.7292 22.3093 17.6222 22.65 17.5439C22.5371 17.7087 22.4251 17.8729 22.3142 18.039C22.2344 18.1581 22.1518 18.2741 22.0732 18.3943C21.7021 18.9598 21.3393 19.5328 20.9883 20.1149L20.5991 19.7133C20.1292 19.228 19.5362 18.8786 18.8837 18.7037C18.715 18.6585 18.5441 18.6299 18.3718 18.6092C18.3331 18.6033 18.2925 18.6013 18.2526 18.5966ZM19.6696 8.87783C19.5048 8.86806 19.3781 8.72203 19.3856 8.56565C19.3931 8.40402 19.5362 8.27426 19.6978 8.2817L23.8359 8.48121C23.9711 8.51745 24.064 8.6447 24.0575 8.78342C24.0529 8.88977 23.9941 8.95846 23.9588 8.99008C23.9243 9.02118 23.8515 9.07265 23.7451 9.06806L19.6696 8.87783ZM19.1866 11.7789C19.2962 11.6962 19.4029 11.6157 19.5069 11.5344C19.5816 11.476 19.65 11.4129 19.7108 11.3478C19.9688 11.071 20.1062 10.72 20.1218 10.3439L23.2018 10.4878C23.1974 10.5822 23.1946 10.6764 23.206 10.7676C23.2509 11.1218 23.4125 11.4498 23.687 11.7221C23.7773 11.809 23.8724 11.8973 23.9705 11.9885C24.0513 12.0632 24.1316 12.14 24.2126 12.217C24.2514 12.2536 24.2908 12.2903 24.3294 12.3275C24.3999 12.3965 24.4662 12.4695 24.5334 12.5421C24.5911 12.6031 24.6476 12.6653 24.702 12.73C24.765 12.8044 24.823 12.8834 24.8809 12.9632C24.9315 13.0335 24.978 13.108 25.0235 13.1837C25.0723 13.2663 25.1201 13.3501 25.1614 13.4388C25.2343 13.5958 25.3018 13.7566 25.3434 13.9389C24.873 14.5122 24.4165 15.1034 23.9675 15.7026C23.8979 15.7952 23.8262 15.8844 23.7572 15.9772C22.9413 15.9663 22.1059 16.131 21.0202 16.5356C19.6526 17.0441 18.7392 17.0317 17.3844 16.4498L17.4803 14.3992C17.5443 13.0117 18.3794 12.3852 19.1866 11.7789ZM10.4146 28.0063C10.7994 28.1094 11.0282 28.5047 10.9249 28.8902C10.8216 29.2757 10.4258 29.5036 10.0411 29.4005L5.16135 28.093C4.77655 27.9899 4.54774 27.5946 4.65104 27.2091C4.75433 26.8236 5.15013 26.5957 5.53492 26.6988L10.4146 28.0063ZM4.78777 29.4872L11.0617 31.1683C11.4465 31.2714 11.6753 31.6667 11.572 32.0522C11.4687 32.4377 11.0729 32.6656 10.6881 32.5625L4.4142 30.8814C4.0294 30.7783 3.80059 30.383 3.90389 29.9975C4.00718 29.612 4.40298 29.3841 4.78777 29.4872ZM12.2294 9.20713L12.7869 8.95304L12.6275 8.36268C12.528 7.99233 12.5268 7.6035 12.6251 7.23683C12.9277 6.10753 14.059 5.42369 15.2011 5.67888L16.0569 5.87009L16.0802 4.99395C16.0837 4.84696 16.1034 4.70654 16.1379 4.57758C16.3785 3.67972 17.2825 3.11127 18.1959 3.28279L18.8531 3.40658L19.0389 2.71297C19.227 2.09169 19.8786 1.7261 20.5109 1.89552C20.8748 1.99302 21.0911 2.22879 21.2078 2.40949L21.5782 2.98169L22.1707 2.64434C22.4415 2.48976 22.757 2.46373 23.0582 2.58626C23.42 2.7303 23.6793 3.11209 23.6878 3.51557C23.6911 3.65095 23.6691 3.77505 23.6214 3.89451L23.3314 4.65062L24.1163 4.86095C25.118 5.12936 25.7462 6.13672 25.5473 7.15486L25.456 7.62126L25.8482 7.88922C26.8352 8.56388 27.2755 9.7869 26.942 10.9341C26.7995 11.4241 26.5134 11.8563 26.1139 12.1953C25.7537 11.6744 25.3226 11.2727 24.9598 10.9371C24.8658 10.8499 24.7748 10.7658 24.684 10.678C24.6585 10.6532 24.6301 10.6142 24.6372 10.5376C24.6473 10.4328 24.7173 10.3223 24.817 10.2541C25.2155 9.9828 25.4663 9.53449 25.4896 9.05434L25.5082 8.64764C25.5468 7.82043 24.8719 7.07399 24.0436 7.03958L23.8466 7.03014C23.8443 7.03027 23.8424 7.02902 23.8409 7.02934L21.6749 6.92866L19.5617 6.82939C18.7146 6.78993 17.9931 7.44687 17.9542 8.29491L17.9452 8.49573C17.945 8.49643 17.9448 8.49712 17.9446 8.49782C17.9444 8.49852 17.9449 8.4994 17.9446 8.5008L17.9351 8.70073C17.9118 9.19208 18.1297 9.66964 18.5178 9.97535C18.614 10.0512 18.6809 10.164 18.6882 10.2623C18.6925 10.3188 18.6749 10.3425 18.6166 10.3986C18.522 10.4726 18.4227 10.5476 18.321 10.6234C18.2172 10.701 18.1092 10.7834 17.9998 10.8684C17.9659 10.8944 17.9331 10.9222 17.899 10.949C17.8174 11.0138 17.7357 11.0815 17.6526 11.1519C17.6109 11.1878 17.5694 11.2253 17.5273 11.2625C17.4514 11.3311 17.3764 11.4021 17.3017 11.477C17.2599 11.5189 17.2189 11.5602 17.1774 11.6036C17.0981 11.6877 17.0222 11.7787 16.9473 11.8714C16.916 11.9101 16.8839 11.9463 16.8536 11.9868C16.7513 12.123 16.6544 12.2674 16.5656 12.4229C16.5526 12.4464 16.5426 12.4728 16.5294 12.4969C16.4567 12.6314 16.3907 12.772 16.3309 12.9226C16.3075 12.9821 16.2889 13.0459 16.2677 13.1082C16.2401 13.189 16.2085 13.2649 16.1856 13.3507C16.1724 13.3188 16.1589 13.2912 16.1456 13.26C16.1156 13.1877 16.0842 13.121 16.0535 13.0515C15.9845 12.8963 15.9132 12.7472 15.8397 12.6057C15.8038 12.5363 15.767 12.4674 15.7301 12.4015C15.6505 12.2607 15.5671 12.1285 15.4828 12.0028C15.4512 11.9562 15.4214 11.9056 15.3892 11.8612C15.2743 11.7018 15.1542 11.5561 15.0291 11.4232C14.9913 11.3832 14.9509 11.35 14.9125 11.312C14.8207 11.2224 14.7269 11.1375 14.63 11.0615C14.5769 11.0196 14.5223 10.9811 14.4672 10.9439C14.377 10.8817 14.285 10.8264 14.191 10.7758C14.1343 10.7449 14.0779 10.7126 14.0201 10.6859C13.899 10.6303 13.7744 10.5849 13.6471 10.5471C13.618 10.5385 13.5908 10.523 13.5615 10.5152C12.8372 10.3211 12.1021 10.4267 11.415 10.6513C11.3931 10.4766 11.4051 10.2982 11.4519 10.1233C11.5603 9.71598 11.8441 9.38184 12.2294 9.20713ZM6.19963 13.795C6.64337 13.3185 7.47286 13.0865 8.81105 13.064C9.43688 13.0539 10.0596 12.8882 10.6094 12.5873C10.8538 12.4532 11.081 12.3415 11.2974 12.2449C11.4902 12.1583 11.6731 12.0863 11.8462 12.0288C11.8527 12.0268 11.8592 12.0248 11.8657 12.0228C12.2079 11.9113 12.5122 11.8576 12.7826 11.8606C12.7938 11.8606 12.8041 11.8611 12.8151 11.8618C12.9471 11.8658 13.0721 11.8814 13.1886 11.9125C14.0655 12.1475 14.7715 13.2744 15.2872 15.2617C15.5573 16.3032 15.3704 17.6839 14.8361 18.7885C14.7851 18.7696 14.7361 18.749 14.6868 18.7268C14.4494 18.6116 14.2283 18.4665 14.0457 18.2778L13.6286 17.8463C13.1587 17.361 12.5657 17.0116 11.9132 16.8367C11.7368 16.7895 11.5578 16.7579 11.378 16.7374C10.8782 16.67 10.3648 16.7013 9.87594 16.8415L9.5952 16.9217C9.11551 17.0584 8.60595 17.0556 8.12732 16.9318C7.65093 16.7997 7.20736 16.5478 6.86117 16.1891L6.07329 15.3735C5.97072 15.2684 5.85121 15.1818 5.7201 15.119C5.75757 14.5358 5.91615 14.1001 6.19963 13.795ZM11.3352 35.7244L3.66705 33.6698C3.28225 33.5667 3.05344 33.1714 3.15674 32.7859C3.26003 32.4004 3.65583 32.1725 4.04062 32.2756L11.7087 34.3302C12.0935 34.4334 12.3223 34.8286 12.219 35.2141C12.1157 35.5996 11.72 35.8276 11.3352 35.7244ZM15.5178 36.8452L14.1236 36.4716C13.7388 36.3685 13.5099 35.9732 13.6132 35.5877C13.7165 35.2022 14.1123 34.9743 14.4971 35.0774L15.8913 35.451C16.2761 35.5541 16.5049 35.9494 16.4016 36.3349C16.2983 36.7204 15.9025 36.9483 15.5178 36.8452Z" fill="#3F8E71"/>
</svg>
