<svg width="17" height="20" viewBox="0 0 17 20" fill="none" xmlns="http://www.w3.org/2000/svg">
<path d="M16.096 3.11801L9.096 0.738016C8.818 0.642016 8.516 0.642016 8.236 0.738016L1.236 3.11801C0.696 3.30201 0.332001 3.81002 0.332001 4.38002V9.73801C0.332001 16.494 7.824 19.758 8.144 19.894C8.312 19.964 8.49 20 8.666 20C8.844 20 9.022 19.964 9.188 19.894C9.508 19.758 17 16.494 17 9.73801V4.38002C17 3.81002 16.636 3.30201 16.096 3.11801ZM13.4 8.13401L9.4 13.468C9.168 13.778 8.814 13.97 8.428 13.998C8.396 13.998 8.364 14 8.334 14C7.982 14 7.642 13.86 7.392 13.61L4.726 10.944C4.206 10.424 4.206 9.58001 4.726 9.05801C5.246 8.53601 6.09 8.53801 6.612 9.05801L8.192 10.638L11.27 6.53402C11.712 5.94602 12.548 5.82602 13.136 6.26802C13.722 6.70802 13.842 7.54401 13.4 8.13401Z" fill="#B3DBFF"/>
</svg>
