<svg width="23" height="28" viewBox="0 0 23 28" fill="none" xmlns="http://www.w3.org/2000/svg">
<path d="M19 0H3.666C1.64 0 0 1.64 0 3.666V24.332C0 26.36 1.64 28 3.666 28H14.532C13.412 26.226 12.666 24.134 12.666 21.734V18.48C12.466 18.6 12.24 18.666 12 18.666H5.334C4.6 18.666 4 18.066 4 17.332C4 16.598 4.6 16 5.334 16H12C12.254 16 12.48 16.066 12.68 16.186C12.734 15.052 13.266 14.012 14.106 13.332H5.332C4.6 13.334 4 12.734 4 12C4 11.266 4.6 10.666 5.334 10.666H17.334C17.894 10.666 18.374 11.012 18.574 11.506L22.374 10.212C22.468 10.172 22.56 10.146 22.668 10.132V3.666C22.666 1.64 21.026 0 19 0ZM10.666 8H5.332C4.6 8 4 7.4 4 6.666C4 5.932 4.6 5.332 5.334 5.332H10.668C11.402 5.332 12.002 5.932 12.002 6.666C12.002 7.4 11.4 8 10.666 8Z" fill="#80C3FF"/>
</svg>
