<svg width="47" height="32" viewBox="0 0 47 32" fill="none" xmlns="http://www.w3.org/2000/svg">
   <path d="M46.485 2.49664C48.7237 10.8514 10.9182 30.8653 7.86845 31.6825C6.15859 32.1406 4.11301 32.2663 3.69063 30.69C3.54951 30.1633 3.95343 29.2392 4.77423 28.0357L4.77322 28.0366L0.599962 23.7707C0.034912 23.1932 0.107556 22.2503 0.75427 21.7661L1.18803 21.4414C1.97417 20.8528 2.97935 20.6398 3.93657 20.8589L9.79723 22.2009C11.478 20.4801 13.4124 18.6317 15.4743 16.7696L3.73343 12.9605C2.80457 12.6591 2.50188 11.4957 3.16615 10.7799L3.8466 10.0466C4.97913 8.82623 6.56691 8.12996 8.23175 8.12344L26.0471 8.0539C30.6834 4.60455 34.9975 1.9422 37.7739 1.19827C38.5154 0.999585 39.2632 0.820259 39.9936 0.679454L35.5764 4.29431L35.9091 6.01675L42.7103 0.372733C44.6884 0.317953 46.0417 0.842335 46.485 2.49664ZM30.1069 22.3427L38.2027 27.7303C38.6961 28.0586 39.3467 28.0229 39.8011 27.6426L40.5288 27.0335C41.8558 25.9228 42.3205 24.086 41.6816 22.4779L39.1244 16.0425C38.9662 15.6443 38.4793 15.4959 38.1257 15.738L30.0994 21.2348C29.7088 21.5025 29.7126 22.0804 30.1069 22.3427Z" fill="#21317D"/>
</svg>